<?xml version="1.0" encoding="utf-8"?>
<svg viewBox="71.381 71 161 61.6" xmlns="http://www.w3.org/2000/svg" xmlns:bx="https://boxy-svg.com">
  <defs>
    <style bx:fonts="Averia Libre">@import url(https://fonts.googleapis.com/css2?family=Averia+Libre%3Aital%2Cwght%400%2C300%3B0%2C400%3B0%2C700%3B1%2C300%3B1%2C400%3B1%2C700&amp;display=swap);</style>
  </defs>
  <path d="M 135.381 240.337 C 135.381 234.437 130.581 229.637 124.681 229.637 C 118.781 229.637 113.981 234.437 113.981 240.337 C 113.981 243.837 117.181 249.137 119.581 253.137 L 89.281 253.137 C 87.981 253.137 86.581 252.637 85.581 251.537 C 84.281 250.237 83.681 248.337 84.281 246.437 C 84.781 244.337 87.181 242.437 89.881 242.437 L 100.281 242.437 C 103.181 242.437 105.881 241.337 107.781 239.237 C 110.681 236.337 111.781 232.037 110.181 228.037 C 108.881 224.037 104.581 221.137 100.081 221.137 L 86.581 221.137 C 89.281 217.137 92.681 211.237 92.681 207.837 C 92.681 201.937 87.881 197.137 81.981 197.137 C 76.081 197.137 71.381 201.937 71.381 207.837 C 71.381 212.637 77.481 221.737 79.381 224.337 C 79.681 225.437 80.681 226.437 82.081 226.437 L 99.981 226.437 C 102.381 226.437 104.481 227.737 105.081 229.937 C 105.881 232.037 105.381 234.237 103.781 235.537 C 102.681 236.637 101.381 237.137 100.081 237.137 L 89.481 237.137 C 84.181 237.137 79.581 240.637 78.781 245.637 C 77.981 249.137 79.081 252.837 81.681 255.537 C 83.781 257.637 86.481 258.737 89.181 258.737 L 124.681 258.737 C 125.781 258.737 126.781 257.937 127.081 257.137 C 129.281 254.237 135.381 244.837 135.381 240.337 Z M 82.081 202.437 C 84.981 202.437 87.381 204.837 87.381 207.737 C 87.381 209.637 84.981 214.137 82.081 218.437 C 79.181 214.137 76.781 209.337 76.781 207.737 C 76.681 204.837 79.081 202.437 82.081 202.437 Z M 124.681 235.037 C 127.581 235.037 129.981 237.437 129.981 240.337 C 129.981 242.237 127.581 246.737 124.681 251.037 C 121.781 246.737 119.381 241.937 119.381 240.337 C 119.381 237.437 121.781 235.037 124.681 235.037 Z" fill="#EEC41E"/>
  <path d="M 124.681 242.237 C 126.173 242.237 127.381 241.028 127.381 239.537 C 127.381 238.045 126.173 236.837 124.681 236.837 C 123.19 236.837 121.981 238.045 121.981 239.537 C 121.981 241.028 123.19 242.237 124.681 242.237 Z" fill="#EEC41E"/>
  <path d="M 82.081 209.737 C 83.573 209.737 84.781 208.528 84.781 207.037 C 84.781 205.545 83.573 204.337 82.081 204.337 C 80.59 204.337 79.381 205.545 79.381 207.037 C 79.381 208.528 80.59 209.737 82.081 209.737 Z" fill="#EEC41E"/>
</svg>
