<?xml version="1.0" encoding="iso-8859-1"?>
<!-- Generator: Adobe Illustrator 19.0.0, SVG Export Plug-In . SVG Version: 6.00 Build 0)  -->
<svg version="1.1" id="Layer_1" xmlns="http://www.w3.org/2000/svg" xmlns:xlink="http://www.w3.org/1999/xlink" x="0px" y="0px"
	 viewBox="0 0 512 512" style="enable-background:new 0 0 512 512;" xml:space="preserve">
<g>
	<g>
		<path d="M503.83,262.536h-24.52v-49.501c0.883,0.313,1.801,0.479,2.717,0.479c2.484,0,4.938-1.128,6.543-3.268
			c2.707-3.609,1.975-8.731-1.634-11.438l-61.004-45.753c-2.905-2.179-6.899-2.179-9.804,0l-61.004,45.753
			c-3.609,2.707-4.341,7.829-1.634,11.438c2.196,2.929,5.982,3.962,9.26,2.803v49.486H324.62v-49.501
			c0.883,0.313,1.801,0.479,2.717,0.479c2.484,0,4.938-1.128,6.543-3.268c2.707-3.609,1.976-8.731-1.634-11.438l-40.306-30.23
			v-39.489c0-4.513-3.658-8.17-8.17-8.17s-8.17,3.657-8.17,8.17v39.489l-40.306,30.23c-3.61,2.707-4.341,7.829-1.634,11.438
			c2.197,2.929,5.982,3.962,9.26,2.803v49.486H185.03l-46.795-81.893c-10.412-18.219-35.006-32.49-55.989-32.49H8.715
			c-4.512,0-8.17,3.657-8.17,8.17s3.658,8.17,8.17,8.17h73.532c15.144,0,34.288,11.108,41.802,24.258l42.162,73.785H8.17
			c-4.512,0-8.17,3.657-8.17,8.17c0,4.513,3.658,8.17,8.17,8.17h172.11c0.033,0,62.637,0,62.637,0v16.34h-2.723
			c-4.512,0-8.17,3.657-8.17,8.17c0,4.513,3.658,8.17,8.17,8.17h2.723v170.485c0,4.513,3.658,8.17,8.17,8.17h196.085
			c4.512,0,8.17-3.657,8.17-8.17v-78.979h2.723c2.804,0,5.412-1.437,6.909-3.808c1.497-2.37,1.673-5.342,0.468-7.875l-21.787-45.753
			c-1.355-2.844-4.226-4.657-7.376-4.657h-111.66v-29.413h2.723c4.512,0,8.17-3.657,8.17-8.17c0-4.513-3.658-8.17-8.17-8.17h-2.723
			v-16.34H503.83c4.512,0,8.17-3.657,8.17-8.17C512,266.193,508.342,262.536,503.83,262.536z M308.28,473.872h-16.34v-24.511
			c0-4.513-3.658-8.17-8.17-8.17s-8.17,3.657-8.17,8.17v24.511h-16.34V311.557h49.021V473.872z M308.28,295.217h-49.021V201.26
			l24.511-18.383l24.511,18.383V295.217z M439.003,473.872H324.62v-70.808h114.383V473.872z M431.12,357.311l14.006,29.413H324.62
			v-29.413H431.12z M462.969,262.536h-33.77v-24.511c0-4.513-3.658-8.17-8.17-8.17s-8.17,3.657-8.17,8.17v24.511h-33.77V201.26
			l41.94-31.455l41.94,31.455V262.536z"/>
	</g>
</g>
<g>
	<g>
		<path d="M208.078,421.038l-57.736-43.302v-20.905c0.883,0.313,1.801,0.479,2.717,0.479c2.484,0,4.938-1.128,6.543-3.268
			c2.707-3.609,1.975-8.731-1.634-11.438l-61.004-45.753c-2.905-2.179-6.899-2.179-9.804,0l-61.004,45.753
			c-3.609,2.707-4.341,7.829-1.634,11.438c2.197,2.929,5.982,3.963,9.26,2.803v57.657c0,4.513,3.658,8.17,8.17,8.17h10.894
			c4.512,0,8.17-3.657,8.17-8.17s-3.658-8.17-8.17-8.17H50.12v-61.277l41.94-31.455l41.94,31.455v32.681l-33.77,25.328v-21.243
			c0-4.513-3.658-8.17-8.17-8.17c-4.512,0-8.17,3.657-8.17,8.17v32.681c0,0.266,0.015,0.528,0.039,0.788l-7.665,5.749
			c-3.609,2.707-4.341,7.829-1.634,11.438c2.196,2.929,5.982,3.962,9.26,2.802v57.658c0,4.513,3.658,8.17,8.17,8.17h100.221
			c4.512,0,8.17-3.657,8.17-8.17v-57.671c0.883,0.313,1.801,0.479,2.717,0.479c2.484,0,4.938-1.128,6.543-3.268
			C212.42,428.868,211.688,423.745,208.078,421.038z M184.112,484.766h-33.77v-24.511c0-4.513-3.658-8.17-8.17-8.17
			s-8.17,3.657-8.17,8.17v24.511h-33.77v-61.277l41.94-31.455l41.94,31.455V484.766z"/>
	</g>
</g>
<g>
	<g>
		<path d="M436.289,10.894h-32.681c-4.512,0-8.17,3.657-8.17,8.17s3.658,8.17,8.17,8.17h32.681c10.511,0,19.064,8.553,19.064,19.064
			c0,10.511-8.553,19.064-19.064,19.064H297.396c-4.512,0-8.17,3.657-8.17,8.17c0,10.511-8.553,19.064-19.064,19.064H76.8
			c-10.511,0-19.064-8.553-19.064-19.064S66.289,54.468,76.8,54.468h108.936c4.512,0,8.17-3.657,8.17-8.17
			c0-10.511,8.553-19.064,19.064-19.064h157.957c4.512,0,8.17-3.657,8.17-8.17s-3.658-8.17-8.17-8.17H212.97
			c-16.711,0-30.755,11.638-34.452,27.234H76.8c-19.521,0-35.404,15.882-35.404,35.404s15.883,35.404,35.404,35.404h193.362
			c16.711,0,30.755-11.638,34.452-27.234h131.675c19.521,0,35.404-15.882,35.404-35.404
			C471.694,26.775,455.811,10.894,436.289,10.894z"/>
	</g>
</g>
<g>
	<g>
		<path d="M41.94,462.979c-4.512,0-8.17,3.657-8.17,8.17v10.894c0,4.513,3.658,8.17,8.17,8.17s8.17-3.657,8.17-8.17v-10.894
			C50.111,466.636,46.453,462.979,41.94,462.979z"/>
	</g>
</g>
<g>
	<g>
		<path d="M205.345,343.149c-4.512,0-8.17,3.657-8.17,8.17v10.894c0,4.513,3.658,8.17,8.17,8.17c4.512,0,8.17-3.657,8.17-8.17
			v-10.894C213.515,346.806,209.857,343.149,205.345,343.149z"/>
	</g>
</g>
<g>
	<g>
		<path d="M472.238,295.217c-4.512,0-8.17,3.657-8.17,8.17v10.894c0,4.513,3.658,8.17,8.17,8.17s8.17-3.657,8.17-8.17v-10.894
			C480.409,298.874,476.75,295.217,472.238,295.217z"/>
	</g>
</g>
<g>
	<g>
		<circle cx="283.768" cy="224.409" r="8.17"/>
	</g>
</g>
<g>
</g>
<g>
</g>
<g>
</g>
<g>
</g>
<g>
</g>
<g>
</g>
<g>
</g>
<g>
</g>
<g>
</g>
<g>
</g>
<g>
</g>
<g>
</g>
<g>
</g>
<g>
</g>
<g>
</g>
</svg>
